<svg xmlns="http://www.w3.org/2000/svg" version="1.1" xmlns:xlink="http://www.w3.org/1999/xlink" xmlns:svgjs="http://svgjs.dev/svgjs" width="2000" height="1247" viewBox="0 0 2000 1247"><g transform="matrix(1,0,0,1,-1.2121212121212466,0.504858299595071)"><svg viewBox="0 0 396 247" data-background-color="#ffffff" preserveAspectRatio="xMidYMid meet" height="1247" width="2000" xmlns="http://www.w3.org/2000/svg" xmlns:xlink="http://www.w3.org/1999/xlink"><g id="tight-bounds" transform="matrix(1,0,0,1,0.2400000000000091,-0.09999999999999432)"><svg viewBox="0 0 395.52 247.2" height="247.2" width="395.52"><g><svg></svg></g><g><svg viewBox="0 0 395.52 247.2" height="247.2" width="395.52"><g transform="matrix(1,0,0,1,75.54432,78.28404853105852)"><svg viewBox="0 0 244.43135999999998 90.63190293788297" height="90.63190293788297" width="244.43135999999998"><g><svg viewBox="0 0 244.43135999999998 90.63190293788297" height="90.63190293788297" width="244.43135999999998"><g><svg viewBox="0 0 244.43135999999998 90.63190293788297" height="90.63190293788297" width="244.43135999999998"><g><svg viewBox="0 0 244.43135999999998 90.63190293788297" height="90.63190293788297" width="244.43135999999998"><g id="textblocktransform"><svg viewBox="0 0 244.43135999999998 90.63190293788297" height="90.63190293788297" width="244.43135999999998" id="textblock"><g><svg viewBox="0 0 244.43135999999998 53.345874180138566" height="53.345874180138566" width="244.43135999999998"><g transform="matrix(1,0,0,1,0,0)"><svg width="244.43135999999998" viewBox="0.98 -36.04 169.12 36.92" height="53.345874180138566" data-palette-color="#50a060"><path d="M1.17 0.15L1.17 0.15 1.07-2.25Q5.57-2.98 6.64-3.03L6.64-3.03Q6.69-4.69 6.69-8.01L6.69-8.01Q6.69-12.4 6.49-20.68 6.3-28.96 6.25-31.64L6.25-31.64 1.32-31.88 0.98-34.72Q2.98-34.67 7.18-34.67L7.18-34.67Q11.47-34.67 13.57-34.62L13.57-34.62 13.72-32.18Q12.89-31.84 11.38-31.76 9.86-31.69 9.47-31.64L9.47-31.64Q9.62-30.27 9.64-24.76 9.67-19.24 9.67-12.55 9.67-5.86 9.77-3.03L9.77-3.03Q10.55-2.88 12.74-2.69 14.94-2.49 15.48-2.39L15.48-2.39 15.38 0.15Q13.92 0.1 10.74 0.1L10.74 0.1Q9.08 0.1 5.81 0.12 2.54 0.15 1.17 0.15ZM18.45-0.29L18.45-0.29 18.6-35.55Q29.44-35.45 35.35-30 41.26-24.56 41.26-14.06L41.26-14.06Q41.26-10.69 39.5-7.91 37.74-5.13 34.98-3.47 32.22-1.81 29.03-0.9 25.83 0 22.7 0L22.7 0Q20.75 0 18.45-0.29ZM22.12-3.27L22.12-3.27 22.95-3.27Q25.73-3.27 28.32-3.93 30.91-4.59 33.1-5.91 35.3-7.23 36.62-9.55 37.94-11.87 37.94-14.89L37.94-14.89Q37.94-18.99 35.47-23.22 33.01-27.44 29.51-30.05 26.02-32.67 23.04-32.67L23.04-32.67Q22.41-32.67 21.82-32.52L21.82-32.52Q21.82-29.59 22.12-3.27ZM65.67 0.34L65.67 0.34 61.37 0.34Q59.76-1.17 57.95-3.13 56.15-5.08 55-6.45 53.85-7.81 51.83-10.33 49.8-12.84 48.97-13.87L48.97-13.87 49.6-0.68Q49.16 0.78 47.9 0.78L47.9 0.78Q47.02 0.78 46.21 0.07 45.41-0.63 45.21-1.66L45.21-1.66Q45.36-5.57 45.45-17.87 45.55-30.18 45.89-36.04L45.89-36.04 48.09-35.55Q48.24-33.11 48.43-27.08 48.63-21.04 48.73-19.04L48.73-19.04Q49.56-20.07 51.83-22.83 54.1-25.59 54.95-26.59 55.81-27.59 57.44-29.49 59.08-31.4 60.44-32.81 61.81-34.23 63.37-35.69L63.37-35.69 64.84-33.3Q63.08-30.37 51.22-16.7L51.22-16.7Q52.92-14.89 58.27-8.3 63.62-1.71 65.67 0.34ZM101.56 0L101.56 0 97.84 0.34Q95.16-16.5 92.03-28.52L92.03-28.52Q90.42-24.71 88.49-17.8 86.56-10.89 85.83-8.84L85.83-8.84Q85.73-8.84 85.51-8.81 85.3-8.79 85.15-8.79L85.15-8.79Q84.47-8.79 82.9-8.94 81.34-9.08 80.9-9.08L80.9-9.08Q80.85-10.5 78.41-18.53 75.97-26.56 75.48-28.81L75.48-28.81Q74.6-20.9 68.64 0L68.64 0 65.62-0.29Q66.3-5.62 68.99-17.04 71.67-28.47 72.16-34.72L72.16-34.72Q73.04-34.81 73.58-34.81L73.58-34.81Q74.06-34.81 77.19-34.42L77.19-34.42Q77.87-34.33 79.17-30 80.46-25.68 81.78-20.51 83.1-15.33 83.44-14.4L83.44-14.4Q84.81-17.77 86.74-25.34 88.66-32.91 89.45-34.96L89.45-34.96Q90.23-34.91 94.38-34.52L94.38-34.52Q95.65-29.59 96.84-23.88 98.04-18.16 99.43-10.89 100.82-3.61 101.56 0ZM123.23-4.74L123.23-4.74 123.72-2.59Q121.57-1.81 117.35-0.85 113.12 0.1 111.07 0.1L111.07 0.1Q108.97 0.1 107.41-1.29 105.85-2.69 105.07-4.86 104.29-7.03 103.92-9.16 103.55-11.28 103.55-13.33L103.55-13.33Q103.55-25.54 114.59-25.54L114.59-25.54Q117.23-25.54 119.23-23.85 121.23-22.17 121.23-19.48L121.23-19.48Q121.23-18.02 120.42-16.89 119.62-15.77 118.47-15.11 117.32-14.45 115.54-13.92 113.76-13.38 112.39-13.13 111.03-12.89 109.12-12.6 107.22-12.3 106.48-12.16L106.48-12.16Q106.53-10.74 106.66-9.67 106.78-8.59 107.14-7.35 107.51-6.1 108.12-5.3 108.73-4.49 109.8-3.96 110.88-3.42 112.34-3.42L112.34-3.42Q114.1-3.42 116.64-3.74 119.18-4.05 121.16-4.39 123.13-4.74 123.23-4.74ZM106.68-15.19L106.68-15.19Q113.32-17.09 117.57-19.19L117.57-19.19Q117.23-20.8 116.64-21.53 116.05-22.27 114.88-22.27L114.88-22.27Q111.9-22.27 109.49-20.21 107.07-18.16 106.68-15.19ZM127.43-21.09L127.43-21.09 126.45-23.58Q127.72-24.85 129.68-25.61 131.63-26.37 133.53-26.37L133.53-26.37Q141.78-26.37 141.78-12.11L141.78-12.11Q141.78-10.16 141.56-6.35 141.34-2.54 141.34-0.63L141.34-0.63Q140.95 0.88 139.83 0.88L139.83 0.88Q138.95 0.88 138.22 0 137.49-0.88 137.49-1.95L137.49-1.95Q137.49-2.29 137.54-2.44L137.54-2.44Q134.51 0.49 131.09 0.49L131.09 0.49Q128.5 0.49 126.57-1.39 124.65-3.27 124.65-5.96L124.65-5.96Q124.65-10.5 128.19-14.16 131.73-17.82 136.22-17.82L136.22-17.82Q136.41-17.82 136.61-17.8 136.8-17.77 137.07-17.72 137.34-17.68 137.49-17.68L137.49-17.68Q137.1-23.39 132.95-23.39L132.95-23.39Q130.51-23.39 127.43-21.09ZM137.63-5.81L137.63-5.81Q137.73-9.23 137.73-10.99L137.73-10.99Q137.73-12.45 137.63-15.09L137.63-15.09 137.24-15.09Q133.78-15.04 130.92-12.5 128.06-9.96 128.06-6.35L128.06-6.35Q128.06-4.79 129.02-3.86 129.97-2.93 131.34-2.93L131.34-2.93Q133.48-2.93 137.63-5.81ZM145.74-2.34L146.81-33.5 149.06-33.01 150.13-1.42Q149.69 0.1 148.42 0.1L148.42 0.1Q147.54 0.1 146.74-0.61 145.93-1.32 145.74-2.34L145.74-2.34ZM169.17-23.54L169.17-23.54 168.68-21.58Q163.95-23.54 161.31-23.54L161.31-23.54Q158.97-23.54 158.01-22.83 157.06-22.12 157.06-19.82L157.06-19.82Q157.06-17.97 158.41-16.75 159.75-15.53 161.65-14.82 163.56-14.11 165.49-13.31 167.41-12.5 168.76-10.94 170.1-9.38 170.1-7.08L170.1-7.08Q170.1-3.96 167.8-1.61 165.51 0.73 161.85 0.78L161.85 0.78Q159.16 0.78 156.82-0.34 154.47-1.46 153.11-3.17L153.11-3.17 154.52-4.64Q155.11-4.39 156.26-3.86 157.4-3.32 157.89-3.15 158.38-2.98 159.33-2.78 160.29-2.59 161.36-2.59L161.36-2.59Q163.65-2.59 165.12-3.61 166.58-4.64 166.58-6.49L166.58-6.49Q166.58-7.71 165.9-8.57 165.22-9.42 164.09-9.96 162.97-10.5 161.63-10.99 160.29-11.47 158.94-12.08 157.6-12.7 156.48-13.55 155.35-14.4 154.67-15.87 153.99-17.33 153.99-19.34L153.99-19.34Q153.99-22.27 155.57-24.24 157.16-26.22 160.04-26.22L160.04-26.22Q161.16-26.22 162.58-25.88 164-25.54 164.83-25.24 165.66-24.95 167.29-24.29 168.93-23.63 169.17-23.54Z" opacity="1" transform="matrix(1,0,0,1,0,0)" fill="#50a060" class="wordmark-text-0" data-fill-palette-color="primary" id="text-0"></path></svg></g></svg></g><g transform="matrix(1,0,0,1,0,65.93955477308896)"><svg viewBox="0 0 244.43135999999998 24.69234816479401" height="24.69234816479401" width="244.43135999999998"><g transform="matrix(1,0,0,1,0,0)"><svg width="244.43135999999998" viewBox="0.7 -37.7 480.54 48.550000000000004" height="24.69234816479401" data-palette-color="#50a060"><path d="M28.5-34.55L34.4-34.55 29.55 0 21.2 0 17.5-27.8 13.65 0 5.45 0 0.7-34.55 6.85-34.55 10.05-5.1 14.2-34.55 20.95-34.55 25-5.1 28.5-34.55ZM50.3-27.15Q53.15-27.15 54.8-25.1 56.45-23.05 56.45-19.6L56.45-19.6 56.45 0 50.3 0 50.3-18.9Q50.3-20.8 49.77-21.63 49.25-22.45 48.25-22.45L48.25-22.45Q46.15-22.45 44.1-18.5L44.1-18.5 44.1 0 37.95 0 37.95-37 44.1-37.65 44.1-23.3Q45.35-25.25 46.82-26.2 48.3-27.15 50.3-27.15L50.3-27.15ZM78.9-6.4Q78.9-5.1 79.25-4.48 79.6-3.85 80.4-3.45L80.4-3.45 79.15 0.65Q77.1 0.4 75.87-0.45 74.65-1.3 74.05-3.05L74.05-3.05Q71.75 0.75 67.6 0.75L67.6 0.75Q64.3 0.75 62.35-1.48 60.4-3.7 60.4-7.4L60.4-7.4Q60.4-11.7 63.07-13.95 65.75-16.2 70.85-16.2L70.85-16.2 72.9-16.2 72.9-18.05Q72.9-20.55 72.02-21.58 71.15-22.6 69.2-22.6L69.2-22.6Q66.85-22.6 63.35-21.3L63.35-21.3 61.95-25.3Q63.95-26.2 66.1-26.68 68.25-27.15 70.2-27.15L70.2-27.15Q78.9-27.15 78.9-18.35L78.9-18.35 78.9-6.4ZM69.25-3.7Q71.65-3.7 72.9-7L72.9-7 72.9-12.55 71.45-12.55Q68.9-12.55 67.72-11.4 66.55-10.25 66.55-7.85L66.55-7.85Q66.55-5.8 67.25-4.75 67.95-3.7 69.25-3.7L69.25-3.7ZM95.84-5L97.99-1.2Q95.54 0.75 92.24 0.75L92.24 0.75Q88.79 0.75 86.99-1.23 85.19-3.2 85.19-6.6L85.19-6.6 85.19-22 82.09-22 82.09-26.45 85.19-26.45 85.19-32.3 91.34-33.05 91.34-26.45 96.34-26.45 95.74-22 91.34-22 91.34-6.6Q91.34-4.2 93.39-4.2L93.39-4.2Q94.04-4.2 94.54-4.38 95.04-4.55 95.84-5L95.84-5ZM123.34-37.7L129.49-37.05 129.49 0 124.04 0 123.74-3.05Q121.39 0.75 117.69 0.75L117.69 0.75Q113.59 0.75 111.41-2.93 109.24-6.6 109.24-13.2L109.24-13.2Q109.24-17.4 110.36-20.58 111.49-23.75 113.49-25.45 115.49-27.15 118.09-27.15L118.09-27.15Q121.29-27.15 123.34-24.5L123.34-24.5 123.34-37.7ZM119.44-3.9Q120.59-3.9 121.51-4.7 122.44-5.5 123.34-7L123.34-7 123.34-19.85Q121.74-22.55 119.69-22.55L119.69-22.55Q115.64-22.55 115.64-13.25L115.64-13.25Q115.64-8.2 116.64-6.05 117.64-3.9 119.44-3.9L119.44-3.9ZM144.59-27.15Q149.59-27.15 152.36-23.65 155.14-20.15 155.14-13.25L155.14-13.25Q155.14-6.65 152.34-2.95 149.54 0.75 144.59 0.75L144.59 0.75Q139.64 0.75 136.84-2.88 134.04-6.5 134.04-13.25L134.04-13.25Q134.04-19.95 136.84-23.55 139.64-27.15 144.59-27.15L144.59-27.15ZM144.59-22.5Q142.44-22.5 141.44-20.38 140.44-18.25 140.44-13.25L140.44-13.25Q140.44-8.2 141.44-6.08 142.44-3.95 144.59-3.95L144.59-3.95Q146.74-3.95 147.74-6.08 148.74-8.2 148.74-13.25L148.74-13.25Q148.74-18.3 147.74-20.4 146.74-22.5 144.59-22.5L144.59-22.5ZM188.18-26.45L181.18 0.1Q179.88 4.9 176.98 7.65 174.08 10.4 169.23 10.85L169.23 10.85 168.53 6.5Q171.68 5.85 173.26 4.42 174.83 3 175.73 0L175.73 0 173.43 0 166.73-26.45 172.98-26.45 177.38-4.1 182.08-26.45 188.18-26.45ZM200.48-27.15Q205.48-27.15 208.25-23.65 211.03-20.15 211.03-13.25L211.03-13.25Q211.03-6.65 208.23-2.95 205.43 0.75 200.48 0.75L200.48 0.75Q195.53 0.75 192.73-2.88 189.93-6.5 189.93-13.25L189.93-13.25Q189.93-19.95 192.73-23.55 195.53-27.15 200.48-27.15L200.48-27.15ZM200.48-22.5Q198.33-22.5 197.33-20.38 196.33-18.25 196.33-13.25L196.33-13.25Q196.33-8.2 197.33-6.08 198.33-3.95 200.48-3.95L200.48-3.95Q202.63-3.95 203.63-6.08 204.63-8.2 204.63-13.25L204.63-13.25Q204.63-18.3 203.63-20.4 202.63-22.5 200.48-22.5L200.48-22.5ZM233.73-26.45L233.73 0 228.38 0 228.08-3.35Q226.83-1.3 225.28-0.28 223.73 0.75 221.68 0.75L221.68 0.75Q218.78 0.75 217.1-1.3 215.43-3.35 215.43-6.65L215.43-6.65 215.43-26.45 221.58-26.45 221.58-7Q221.58-3.9 223.68-3.9L223.68-3.9Q224.88-3.9 225.83-4.83 226.78-5.75 227.58-7.45L227.58-7.45 227.58-26.45 233.73-26.45ZM271.32-26.45L277.02-26.45 272.47 0 264.97 0 262.02-20.85 259.12 0 251.67 0 247.02-26.45 252.97-26.45 255.67-4.6 259.02-26.45 265.27-26.45 268.47-4.6 271.32-26.45ZM297.42-6.4Q297.42-5.1 297.77-4.48 298.12-3.85 298.92-3.45L298.92-3.45 297.67 0.65Q295.62 0.4 294.39-0.45 293.17-1.3 292.57-3.05L292.57-3.05Q290.27 0.75 286.12 0.75L286.12 0.75Q282.82 0.75 280.87-1.48 278.92-3.7 278.92-7.4L278.92-7.4Q278.92-11.7 281.59-13.95 284.27-16.2 289.37-16.2L289.37-16.2 291.42-16.2 291.42-18.05Q291.42-20.55 290.54-21.58 289.67-22.6 287.72-22.6L287.72-22.6Q285.37-22.6 281.87-21.3L281.87-21.3 280.47-25.3Q282.47-26.2 284.62-26.68 286.77-27.15 288.72-27.15L288.72-27.15Q297.42-27.15 297.42-18.35L297.42-18.35 297.42-6.4ZM287.77-3.7Q290.17-3.7 291.42-7L291.42-7 291.42-12.55 289.97-12.55Q287.42-12.55 286.24-11.4 285.07-10.25 285.07-7.85L285.07-7.85Q285.07-5.8 285.77-4.75 286.47-3.7 287.77-3.7L287.77-3.7ZM315.57-27.15Q318.42-27.15 320.07-25.1 321.72-23.05 321.72-19.6L321.72-19.6 321.72 0 315.57 0 315.57-18.9Q315.57-20.8 315.04-21.63 314.52-22.45 313.52-22.45L313.52-22.45Q311.42-22.45 309.37-18.5L309.37-18.5 309.37 0 303.22 0 303.22-26.45 308.57-26.45 309.02-23Q310.37-25.1 311.89-26.13 313.42-27.15 315.57-27.15L315.57-27.15ZM338.41-5L340.56-1.2Q338.11 0.75 334.81 0.75L334.81 0.75Q331.36 0.75 329.56-1.23 327.76-3.2 327.76-6.6L327.76-6.6 327.76-22 324.66-22 324.66-26.45 327.76-26.45 327.76-32.3 333.91-33.05 333.91-26.45 338.91-26.45 338.31-22 333.91-22 333.91-6.6Q333.91-4.2 335.96-4.2L335.96-4.2Q336.61-4.2 337.11-4.38 337.61-4.55 338.41-5L338.41-5ZM364.11-5L366.26-1.2Q363.81 0.75 360.51 0.75L360.51 0.75Q357.06 0.75 355.26-1.23 353.46-3.2 353.46-6.6L353.46-6.6 353.46-22 350.36-22 350.36-26.45 353.46-26.45 353.46-32.3 359.61-33.05 359.61-26.45 364.61-26.45 364.01-22 359.61-22 359.61-6.6Q359.61-4.2 361.66-4.2L361.66-4.2Q362.31-4.2 362.81-4.38 363.31-4.55 364.11-5L364.11-5ZM378.21-27.15Q383.21-27.15 385.98-23.65 388.76-20.15 388.76-13.25L388.76-13.25Q388.76-6.65 385.96-2.95 383.16 0.75 378.21 0.75L378.21 0.75Q373.26 0.75 370.46-2.88 367.66-6.5 367.66-13.25L367.66-13.25Q367.66-19.95 370.46-23.55 373.26-27.15 378.21-27.15L378.21-27.15ZM378.21-22.5Q376.06-22.5 375.06-20.38 374.06-18.25 374.06-13.25L374.06-13.25Q374.06-8.2 375.06-6.08 376.06-3.95 378.21-3.95L378.21-3.95Q380.36-3.95 381.36-6.08 382.36-8.2 382.36-13.25L382.36-13.25Q382.36-18.3 381.36-20.4 380.36-22.5 378.21-22.5L378.21-22.5ZM422-13.85Q422-13.4 421.85-11.3L421.85-11.3 408.2-11.3Q408.4-7.2 409.63-5.58 410.85-3.95 413.1-3.95L413.1-3.95Q414.65-3.95 415.9-4.48 417.15-5 418.6-6.15L418.6-6.15 421.15-2.65Q417.65 0.75 412.75 0.75L412.75 0.75Q407.55 0.75 404.78-2.85 402-6.45 402-13L402-13Q402-19.55 404.65-23.35 407.3-27.15 412.15-27.15L412.15-27.15Q416.8-27.15 419.4-23.78 422-20.4 422-13.85L422-13.85ZM416-15.3L416-15.65Q416-19.4 415.1-21.13 414.2-22.85 412.2-22.85L412.2-22.85Q410.35-22.85 409.38-21.18 408.4-19.5 408.2-15.3L408.2-15.3 416-15.3ZM443.2-6.4Q443.2-5.1 443.55-4.48 443.9-3.85 444.7-3.45L444.7-3.45 443.45 0.65Q441.4 0.4 440.17-0.45 438.95-1.3 438.35-3.05L438.35-3.05Q436.05 0.75 431.9 0.75L431.9 0.75Q428.6 0.75 426.65-1.48 424.7-3.7 424.7-7.4L424.7-7.4Q424.7-11.7 427.37-13.95 430.05-16.2 435.15-16.2L435.15-16.2 437.2-16.2 437.2-18.05Q437.2-20.55 436.32-21.58 435.45-22.6 433.5-22.6L433.5-22.6Q431.15-22.6 427.65-21.3L427.65-21.3 426.25-25.3Q428.25-26.2 430.4-26.68 432.55-27.15 434.5-27.15L434.5-27.15Q443.2-27.15 443.2-18.35L443.2-18.35 443.2-6.4ZM433.55-3.7Q435.95-3.7 437.2-7L437.2-7 437.2-12.55 435.75-12.55Q433.2-12.55 432.02-11.4 430.85-10.25 430.85-7.85L430.85-7.85Q430.85-5.8 431.55-4.75 432.25-3.7 433.55-3.7L433.55-3.7ZM460.15-5L462.3-1.2Q459.85 0.75 456.55 0.75L456.55 0.75Q453.1 0.75 451.3-1.23 449.5-3.2 449.5-6.6L449.5-6.6 449.5-22 446.4-22 446.4-26.45 449.5-26.45 449.5-32.3 455.65-33.05 455.65-26.45 460.65-26.45 460.05-22 455.65-22 455.65-6.6Q455.65-4.2 457.7-4.2L457.7-4.2Q458.35-4.2 458.85-4.38 459.35-4.55 460.15-5L460.15-5ZM472.34-35.25Q475.19-35.25 477.19-34.13 479.19-33 480.22-31.18 481.24-29.35 481.24-27.25L481.24-27.25Q481.24-25.4 480.69-24.05 480.14-22.7 479.37-21.85 478.59-21 477.29-19.85L477.29-19.85Q475.54-18.3 474.69-17.07 473.84-15.85 473.84-13.85L473.84-13.85 473.84-12.1 468.19-12.1 468.19-14.15Q468.19-16.3 468.74-17.78 469.29-19.25 470.09-20.15 470.89-21.05 472.14-22.15L472.14-22.15Q473.59-23.45 474.29-24.43 474.99-25.4 474.99-27.05L474.99-27.05Q474.99-28.65 474.12-29.5 473.24-30.35 471.69-30.35L471.69-30.35Q470.34-30.35 469.12-29.63 467.89-28.9 466.64-27.3L466.64-27.3 462.94-30.15Q466.54-35.25 472.34-35.25L472.34-35.25ZM471.09-7.05Q472.74-7.05 473.82-5.9 474.89-4.75 474.89-3.15L474.89-3.15Q474.89-1.55 473.82-0.4 472.74 0.75 471.09 0.75L471.09 0.75Q469.44 0.75 468.37-0.4 467.29-1.55 467.29-3.15L467.29-3.15Q467.29-4.75 468.37-5.9 469.44-7.05 471.09-7.05L471.09-7.05Z" opacity="1" transform="matrix(1,0,0,1,0,0)" fill="#50a060" class="slogan-text-1" data-fill-palette-color="secondary" id="text-1"></path></svg></g></svg></g></svg></g></svg></g></svg></g></svg></g></svg></g><path d="M224.366 72.284L224.366 12.361 1.889 12.361 1.889 234.839 224.366 234.839 224.366 174.916 219.555 174.916 219.555 230.028 6.7 230.028 6.7 17.172 219.555 17.172 219.555 72.284Z" fill="#50a060" stroke="transparent" data-fill-palette-color="tertiary"></path></svg></g><defs></defs></svg><rect width="395.52" height="247.2" fill="none" stroke="none" visibility="hidden"></rect></g></svg></g></svg>